PathFileType  4	(X/Y/Z) C:\Users\antoi\Documents\MyRepositories\mobilecap\ResultsAnalysis
DataRate	CameraRate	NumFrames	NumMarkers	Units	OrigDataRate	OrigDataStartFrame	OrigNumFrames
100.0	100.0	4	51	mm	100.0	19	149
Frame#	Time	r_knee			r_shank_antsup			r_ankle			r_calc			r_5meta			r_toe			L_knee			L_shank_antsup			L_ankle			L_calc			L_5meta			L_toe			r_sh2			r_sh3			r_sh4			L_sh2			L_sh3			r_thigh1			r_thigh2			r_thigh3			r_thigh4			r_thigh5			L_thigh1			L_thigh2			L_thigh3			L_thigh4			r.ASIS			r.PSIS			L.ASIS			L.PSIS			C7			R_Shoulder			L_Shoulder			R_Sternum			L_Sternum			R_humerus			R_elbow_med			R_elbow_lat			R_forearm			R_wrist_radius			R_wrist_ulna			L_humerus			L_elbow_med			L_elbow_lat			L_forearm			L_wrist_radius			L_wrist_ulna			R_HJC			L_HJC			R_HJC_reg			L_HJC_reg			
		X1	Y1	Z1	X2	Y2	Z2	X3	Y3	Z3	X4	Y4	Z4	X5	Y5	Z5	X6	Y6	Z6	X7	Y7	Z7	X8	Y8	Z8	X9	Y9	Z9	X10	Y10	Z10	X11	Y11	Z11	X12	Y12	Z12	X13	Y13	Z13	X14	Y14	Z14	X15	Y15	Z15	X16	Y16	Z16	X17	Y17	Z17	X18	Y18	Z18	X19	Y19	Z19	X20	Y20	Z20	X21	Y21	Z21	X22	Y22	Z22	X23	Y23	Z23	X24	Y24	Z24	X25	Y25	Z25	X26	Y26	Z26	X27	Y27	Z27	X28	Y28	Z28	X29	Y29	Z29	X30	Y30	Z30	X31	Y31	Z31	X32	Y32	Z32	X33	Y33	Z33	X34	Y34	Z34	X35	Y35	Z35	X36	Y36	Z36	X37	Y37	Z37	X38	Y38	Z38	X39	Y39	Z39	X40	Y40	Z40	X41	Y41	Z41	X42	Y42	Z42	X43	Y43	Z43	X44	Y44	Z44	X45	Y45	Z45	X46	Y46	Z46	X47	Y47	Z47	X48	Y48	Z48	X49	Y49	Z49	X50	Y50	Z50	X51	Y51	Z51	

19	0.18000000	184.51354	471.75622	-68.63131	223.16396	412.70876	-71.26732	191.80138	76.36783	-103.78478	140.13047	55.92613	-150.98456	308.10395	39.17082	-96.35294	346.39935	71.62569	-147.55798	145.46110	449.68773	-359.75112	110.44136	362.81364	-343.10757	-174.12548	248.53583	-310.85458	-230.13355	276.41162	-257.69264	-167.06036	131.46449	-336.76807	-112.35328	105.85372	-291.38231	214.90568	300.50124	-70.48423	149.67463	417.48072	-46.46628	133.20772	301.77937	-51.58936	76.31567	437.16310	-378.49572	-30.57923	376.62596	-372.17099	198.61731	720.74353	-12.41120	214.76133	609.59396	-32.43947	154.33997	578.58529	-33.42169	86.69955	702.52630	-18.20195	102.27364	593.24809	-52.75596	159.61972	727.43784	-380.92534	183.04360	590.77450	-372.14318	49.79191	709.82187	-374.56259	72.55072	577.87059	-341.16454	220.21545	913.50647	-92.14848	0.11097	959.81769	-142.55633	193.70991	908.46488	-311.12315	-4.36667	954.72077	-224.44198	112.46389	1389.84992	-148.90507	172.34850	1342.04986	-12.79128	154.29151	1372.34103	-294.23801	238.02350	1320.43146	-140.09866	234.47463	1322.19559	-179.22035	192.37872	1226.06716	41.88601	93.47564	1026.54396	37.46553	131.09103	1035.61690	89.97535	192.12971	964.73158	105.67011	232.21182	824.57976	110.71185	202.27167	821.67163	136.32373	144.34529	1279.09813	-377.07348	47.33685	1075.12789	-384.27015	79.83795	1094.52851	-439.48191	129.90594	1001.12833	-464.19814	153.11034	874.12261	-471.12855	122.44666	875.57560	-497.47712	128.50385	833.77998	-85.85224	105.92178	830.27654	-292.08439	134.40976	854.78237	-113.77947	126.46897	845.74541	-258.90858	
20	0.19000000	187.32776	472.23646	-68.64095	225.31235	412.83905	-71.00832	191.95833	76.45516	-103.53718	140.27709	56.21662	-150.85211	308.19634	38.96358	-96.20064	346.68483	71.57181	-147.24956	167.81468	453.33646	-360.35156	133.84606	366.06246	-343.74036	-149.51219	250.06313	-310.87995	-206.28980	276.27857	-257.41295	-140.17584	133.69944	-338.48500	-84.90888	108.39910	-293.35735	216.19777	300.67461	-70.34022	151.65720	418.17603	-46.59229	134.45875	302.53392	-51.78682	99.04185	440.12335	-378.58830	-7.57183	378.89945	-372.05223	205.38689	721.33834	-12.70483	219.91190	610.02883	-32.63084	159.17503	579.71723	-33.38708	93.40906	704.55154	-18.21274	106.84805	595.58678	-52.41248	173.03158	731.02842	-381.39445	201.00351	595.19328	-372.84498	63.89339	710.36253	-374.25498	90.88321	579.00218	-341.31720	229.64898	914.16045	-92.43034	9.71905	961.65372	-141.73642	203.08298	910.97502	-311.48986	5.08694	956.45235	-223.49047	122.21236	1391.20499	-146.12387	182.59194	1342.50367	-10.60381	163.36035	1374.57014	-291.76448	247.86750	1321.64176	-138.30061	244.23025	1323.72202	-177.49692	203.54998	1226.40786	43.22765	106.25978	1026.14490	38.58136	144.10072	1035.30316	90.96354	205.86522	964.93478	106.01305	247.09355	825.18640	110.43294	217.44746	821.89270	136.06692	153.08743	1282.03817	-375.35686	56.15643	1077.77787	-384.35071	88.49129	1097.94376	-439.17491	139.22467	1004.91140	-464.35247	163.41538	878.17376	-472.01294	132.72870	879.48145	-498.35996	138.09595	834.60680	-86.40674	114.96178	832.71570	-292.60931	143.63583	856.89614	-113.87510	135.40965	847.66036	-259.01194	
21	0.20000000	190.20805	472.72393	-68.71517	227.59028	413.00162	-70.86184	192.09645	76.55230	-103.32661	140.42316	56.47224	-150.74799	308.26916	38.75599	-96.06503	346.94388	71.48652	-146.96012	189.50262	457.12302	-360.50338	157.11312	369.39490	-344.10839	-124.52961	250.08738	-311.03791	-182.12370	274.57317	-257.37886	-112.61524	134.43840	-340.04224	-56.71422	109.75002	-295.08537	217.59472	300.88787	-70.28232	153.78478	418.87167	-46.78981	135.81596	303.30179	-52.00714	121.34781	442.87389	-378.50344	15.32420	380.43182	-371.95839	212.14060	721.84535	-13.01323	225.06791	610.39991	-32.85485	164.05690	580.76987	-33.40815	100.06515	706.42432	-18.18875	111.39110	597.72048	-52.18062	186.01615	734.55261	-382.02883	218.48293	599.60374	-373.44229	77.76197	710.88550	-374.03717	108.88096	580.26242	-341.47793	238.81826	914.90492	-92.53978	19.16644	963.37634	-141.22779	212.44378	913.43967	-311.74607	14.53734	958.18463	-222.85960	131.84656	1392.42473	-143.53771	192.60950	1342.99131	-8.56622	172.45224	1376.56276	-289.39999	257.58746	1322.70575	-136.57108	253.82157	1325.05908	-175.84381	214.48104	1226.87396	44.55080	118.96551	1025.79825	39.57495	156.91898	1035.07653	91.87520	219.43002	965.27757	106.34481	261.84438	825.97150	110.14795	232.44988	822.30200	135.81692	161.76279	1284.73793	-373.74645	65.04108	1080.10994	-384.27470	97.00129	1101.05916	-438.79253	148.41205	1008.47257	-464.54763	173.71423	882.04784	-472.95563	142.87979	883.14669	-499.21100	147.41937	835.47749	-86.96354	124.09428	835.09870	-293.16290	152.65198	858.80410	-114.03051	144.41876	849.56997	-259.23210	
22	0.21000000	193.15584	473.21907	-68.85465	229.94299	413.18365	-70.79797	192.24248	76.67179	-103.17268	140.56569	56.68217	-150.69267	308.33069	38.56965	-95.95219	347.16571	71.36020	-146.70975	210.52304	460.98163	-360.24915	180.18240	372.74945	-344.19264	-99.18077	248.66935	-311.33036	-157.67993	271.29870	-257.63856	-84.27277	133.77847	-341.43350	-27.79219	110.01660	-296.49240	219.05412	301.12938	-70.28514	156.01254	419.55637	-47.07360	137.22512	304.08917	-52.29939	143.17696	445.38435	-378.26859	38.10946	381.19798	-371.90015	218.88254	722.26018	-13.33139	230.26360	610.68063	-33.12321	168.99462	581.74611	-33.49580	106.65587	708.17037	-18.16754	115.96465	599.63503	-52.08221	198.58830	737.94066	-382.83805	235.44982	603.94353	-373.94884	91.38395	711.34107	-373.95039	126.48970	581.59151	-341.65830	247.66024	915.71486	-92.40673	28.45663	964.94353	-141.05592	221.84152	915.79907	-311.78694	23.99161	959.88818	-222.60336	141.36877	1393.51075	-141.15590	202.40940	1343.50624	-6.67131	181.56814	1378.34087	-287.16430	267.17332	1323.64601	-134.90983	263.24169	1326.21879	-174.25131	225.18463	1227.45451	45.85735	131.55570	1025.48872	40.50579	169.53474	1034.94310	92.73240	232.81650	965.76057	106.68404	276.49006	826.92473	109.85211	247.27315	822.89710	135.57417	170.40551	1287.19826	-372.23059	74.00781	1082.17642	-384.01511	105.44245	1103.87611	-438.33417	157.48144	1011.79619	-464.77986	183.96662	885.72078	-473.94445	152.87483	886.56007	-500.01750	156.41739	836.36730	-87.47145	133.36973	837.37105	-293.70426	161.45360	860.45826	-114.18873	153.50157	851.45309	-259.48359	
